<svg width="1222" height="276" viewBox="0 0 1222 276" fill="none" xmlns="http://www.w3.org/2000/svg">
<path opacity="0.2" fill-rule="evenodd" clip-rule="evenodd" d="M0.960938 218V12.4H153.921V62.6H63.7609V90.24H134.041V139.04H63.7609V168.08H152.801V218H0.960938ZM61.7609 170.08V137.04H132.041V92.24H61.7609V60.6H151.921V14.4H2.96094V216H150.801V170.08H61.7609ZM280.533 58.6V114.069L278.891 114.368C268.979 116.17 253.586 120.375 232.653 127.022V218H170.973V59.16H229.013V80.2319C245.643 65.9358 262.158 58.6 278.533 58.6H280.533ZM229.013 82.8835C228.347 83.4707 227.681 84.0695 227.013 84.68V61.16H172.973V216H230.653V125.56C252.307 118.653 268.267 114.267 278.533 112.4V60.6C277.867 60.6 277.201 60.6126 276.533 60.6378C261.011 61.2249 245.171 68.6401 229.013 82.8835ZM291.559 59.16H352.959V218H291.559V59.16ZM290.719 2.59997H353.519V48.04H290.719V2.59997ZM376.139 173.799C381.992 174.818 390.01 175.912 400.191 177.08C411.765 178.013 420.071 178.48 425.111 178.48C436.685 178.48 442.471 174.84 442.471 167.56C442.471 164.76 440.605 162.613 436.871 161.12C432.765 159.44 427.538 158.133 421.191 157.2C412.045 155.333 407.191 154.307 406.631 154.12C394.311 150.947 385.258 146.093 379.471 139.56C373.685 132.84 370.791 123.973 370.791 112.96C370.791 76.1866 394.311 57.8 441.351 57.8C447.698 57.8 456.191 58.2667 466.831 59.2C478.031 60.1333 486.151 61.16 491.191 62.28L489.511 104C488.848 103.881 488.185 103.764 487.524 103.65C480.922 102.509 474.398 101.599 467.951 100.92C458.991 99.9866 452.271 99.52 447.791 99.52C434.725 99.52 428.191 102.507 428.191 108.48C428.191 110.72 429.311 112.68 431.551 114.36C434.351 115.853 440.325 117.44 449.471 119.12C458.245 120.613 465.151 122.2 470.191 123.88C477.845 126.12 484.378 129.947 489.791 135.36C497.071 142.267 500.711 152.533 500.711 166.16C500.711 201.627 476.445 219.36 427.911 219.36C418.951 219.36 409.525 218.987 399.631 218.24C388.431 217.68 379.378 216.84 372.471 215.72L374.151 173.44C374.783 173.559 375.446 173.678 376.139 173.799ZM399.507 220.236C388.283 219.674 379.156 218.83 372.151 217.694L370.402 217.411L372.245 171.048L374.52 171.474C380.417 172.58 389.029 173.786 400.386 175.089C411.939 176.02 420.164 176.48 425.111 176.48C430.753 176.48 434.643 175.581 437.066 174.057C439.334 172.631 440.471 170.566 440.471 167.56C440.471 165.931 439.494 164.323 436.128 162.977L436.121 162.974L436.114 162.971C432.207 161.373 427.151 160.098 420.9 159.179L420.846 159.171L420.791 159.16C416.217 158.226 412.711 157.502 410.277 156.987C409.061 156.729 408.107 156.523 407.419 156.369C406.853 156.242 406.367 156.129 406.086 156.045C393.57 152.815 384.113 147.817 377.974 140.886L377.965 140.876L377.956 140.865C371.786 133.7 368.791 124.332 368.791 112.96C368.791 94.1157 374.843 79.6743 387.199 70.0143C399.463 60.4276 417.625 55.8 441.351 55.8C447.782 55.8 456.339 56.272 467.003 57.2073C478.211 58.1415 486.444 59.1763 491.625 60.3276L493.257 60.6902L491.417 106.374L489.158 105.969C481.925 104.67 474.787 103.651 467.744 102.909C458.799 101.977 452.163 101.52 447.791 101.52C441.348 101.52 436.795 102.266 433.923 103.579C432.512 104.224 431.596 104.966 431.032 105.738C430.485 106.489 430.191 107.376 430.191 108.48C430.191 109.902 430.845 111.29 432.628 112.666C435.175 113.973 440.795 115.492 449.819 117.15C458.61 118.647 465.615 120.25 470.789 121.971C478.727 124.3 485.538 128.285 491.187 133.927C498.979 141.331 502.711 152.199 502.711 166.16C502.711 184.401 496.437 198.361 483.691 207.675C471.062 216.904 452.362 221.36 427.911 221.36C418.904 221.36 409.436 220.985 399.507 220.236ZM626.738 104.6H584.178V160.28C584.178 165.019 585.543 168.234 587.962 170.313C590.439 172.442 594.365 173.68 600.098 173.68C603.433 173.68 609.422 172.877 618.202 171.196L620.578 170.741V215.914L619.024 216.27C612.369 217.791 604.337 218.921 594.945 219.673C584.286 220.608 575.822 221.08 569.578 221.08C554.355 221.08 542.567 217.418 534.591 209.741C526.601 202.05 522.778 190.661 522.778 175.96V104.6H505.978V68.0846L556.514 24.44H584.178V59.16H626.738V104.6ZM582.178 61.16V26.44H557.258L507.978 69V102.6H524.778V175.96C524.778 204.707 539.711 219.08 569.578 219.08C575.738 219.08 584.138 218.613 594.778 217.68C604.111 216.933 612.045 215.813 618.578 214.32V173.16C617.896 173.291 617.229 173.416 616.578 173.537C608.862 174.966 603.369 175.68 600.098 175.68C588.151 175.68 582.178 170.547 582.178 160.28V102.6H624.738V61.16H582.178ZM783.392 165.875V211.099L781.904 211.493C757.146 218.058 734.942 221.36 715.312 221.36C687.573 221.36 666.401 214.567 652.172 200.629C637.936 186.683 630.992 165.919 630.992 138.72C630.992 127.916 632.318 117.836 634.988 108.491L634.994 108.472L634.999 108.455C637.866 99.0903 642.261 90.3966 648.177 82.38C654.21 74.0157 662.734 67.5567 673.647 62.9603C684.776 58.1644 697.842 55.8 712.792 55.8C736.725 55.8 755.04 61.9283 767.352 74.5324C779.656 87.1279 785.632 105.85 785.632 130.32V152.76H695.346C696.103 159.742 699.104 164.888 704.264 168.431C710.038 172.396 718.76 174.52 730.712 174.52C736.709 174.52 744.516 173.7 754.165 172.03C762.523 170.544 771.446 168.686 780.933 166.453L783.392 165.875ZM754.512 174C744.805 175.68 736.872 176.52 730.712 176.52C707.406 176.52 694.947 168.6 693.336 152.76C693.269 152.107 693.221 151.44 693.192 150.76H783.632V130.32C783.632 81.9733 760.018 57.8 712.792 57.8C698.045 57.8 685.258 60.1333 674.432 64.8C663.792 69.28 655.578 75.5333 649.792 83.56C644.005 91.4 639.712 99.8933 636.912 109.04C634.298 118.187 632.992 128.08 632.992 138.72C632.992 192.48 660.432 219.36 715.312 219.36C734.725 219.36 756.752 216.093 781.392 209.56V168.4C780.722 168.557 780.055 168.713 779.392 168.867C770.614 170.901 762.321 172.612 754.512 174ZM723.295 102.48L723.277 102.458C720.514 99.0455 716.812 97.32 711.952 97.32C706.536 97.32 702.366 99.2299 699.231 103.012C696.546 106.451 695.009 110.657 694.693 115.72H727.823C727.534 109.937 725.966 105.596 723.313 102.502L723.295 102.48ZM729.825 115.72C729.856 116.372 729.872 117.039 729.872 117.72H692.632C692.632 117.042 692.651 116.375 692.689 115.72C693.01 110.248 694.671 105.594 697.672 101.76C701.218 97.4666 705.978 95.32 711.952 95.32C717.365 95.32 721.658 97.28 724.832 101.2C727.869 104.743 729.533 109.583 729.825 115.72ZM863.194 275.4H801.794V59.16H861.794V70.7249C875.994 61.0085 890.549 56.08 905.434 56.08C922.521 56.08 936.189 63.2177 946.263 77.3596C956.292 91.4399 961.194 110.565 961.194 134.52C961.194 162.767 955.032 184.325 942.36 198.836C929.643 213.398 910.671 220.52 885.834 220.52C879.98 220.52 872.42 219.624 863.194 217.868V275.4ZM861.194 215.44C861.869 215.575 862.536 215.706 863.194 215.832C872.532 217.624 880.079 218.52 885.834 218.52C934.74 218.52 959.194 190.52 959.194 134.52C959.194 110.813 954.34 92.1467 944.634 78.52C934.927 64.8933 921.86 58.08 905.434 58.08C890.632 58.08 876.085 63.1064 861.794 73.1591C861.126 73.6284 860.46 74.1087 859.794 74.6V61.16H803.794V273.4H861.194V215.44ZM889.618 104.563C887.779 103.298 885.611 102.64 883.034 102.64C877.161 102.64 870.562 105.411 863.194 111.385V174.448C867.544 175.623 871.635 176.2 875.474 176.2C884.343 176.2 890.1 173.308 893.363 167.923C896.791 162.268 898.674 152.116 898.674 137.04C898.674 125.004 897.205 116.269 894.464 110.612C893.107 107.811 891.472 105.838 889.618 104.563ZM861.194 175.96V110.44C869.034 103.907 876.314 100.64 883.034 100.64C894.794 100.64 900.674 112.773 900.674 137.04C900.674 152.16 898.807 162.8 895.074 168.96C891.34 175.12 884.807 178.2 875.474 178.2C870.994 178.2 866.234 177.453 861.194 175.96ZM982.16 64.24C990.56 62.3733 1001.2 60.88 1014.08 59.76C1025.28 58.4533 1036.11 57.8 1046.56 57.8C1068.4 57.8 1085.39 62.84 1097.52 72.92C1109.84 82.8133 1116 97.28 1116 116.32V216H1066.44L1063.08 201.72H1061.68C1046.19 212.733 1031.63 218.24 1018 218.24C1003.25 218.24 991.4 213.853 982.44 205.08C973.48 196.12 969 183.893 969 168.4C969 153.653 974.134 142.173 984.4 133.96C994.667 125.56 1009.41 121.36 1028.64 121.36H1058.6V114.92C1058.6 104.093 1049.64 98.68 1031.72 98.68C1024.25 98.68 1015.95 99.3333 1006.8 100.64C997.748 101.981 990.202 103.473 984.16 105.115C983.474 105.301 982.808 105.49 982.16 105.68V64.24ZM1007.09 102.619C997.059 104.105 988.947 105.769 982.725 107.599L980.16 108.353V62.6356L981.726 62.2876C990.237 60.3964 1000.96 58.894 1013.88 57.77C1025.14 56.4574 1036.03 55.8 1046.56 55.8C1068.68 55.8 1086.18 60.9029 1098.79 71.3707C1111.67 81.722 1118 96.8178 1118 116.32V218H1064.86L1061.61 204.212C1046.36 214.807 1031.81 220.24 1018 220.24C1002.83 220.24 990.44 215.712 981.041 206.509L981.034 206.502L981.026 206.494C971.611 197.079 967 184.298 967 168.4C967 153.134 972.345 141.047 983.142 132.405C993.896 123.611 1009.16 119.36 1028.64 119.36H1056.6V114.92C1056.6 110.178 1054.7 106.781 1050.85 104.452C1046.83 102.024 1040.54 100.68 1031.72 100.68C1024.37 100.68 1016.16 101.323 1007.09 102.619ZM1042.36 151.32C1032.09 151.32 1026.96 155.707 1026.96 164.48C1026.96 168.96 1028.08 172.413 1030.32 174.84C1032.75 177.267 1035.92 178.48 1039.84 178.48C1046 178.48 1052.25 176.333 1058.6 172.04V151.32H1042.36ZM1056.6 153.32H1042.36C1037.47 153.32 1034.17 154.372 1032.11 156.13C1030.11 157.837 1028.96 160.491 1028.96 164.48C1028.96 168.617 1029.99 171.511 1031.76 173.453C1033.76 175.433 1036.38 176.48 1039.84 176.48C1045.24 176.48 1050.82 174.693 1056.6 170.964V153.32ZM1138.94 0.359985H1200.34V218H1138.94V0.359985ZM1257.3 218L1208.18 59.16H1273.51L1297.69 160.321L1321.59 59.16H1385.82L1336.12 218H1257.3ZM1296.29 163.08L1271.93 61.16H1210.89L1258.77 216H1334.65L1383.09 61.16H1323.17L1299.09 163.08H1296.29ZM1533.98 165.875V211.099L1532.49 211.493C1507.73 218.058 1485.53 221.36 1465.9 221.36C1438.16 221.36 1416.99 214.567 1402.76 200.629C1388.52 186.683 1381.58 165.919 1381.58 138.72C1381.58 127.916 1382.9 117.836 1385.57 108.491L1385.58 108.472L1385.59 108.455C1388.45 99.0932 1392.84 90.4019 1398.76 82.3874C1404.79 74.0203 1413.32 67.5591 1424.23 62.9615C1435.36 58.1648 1448.43 55.8 1463.38 55.8C1487.31 55.8 1505.63 61.9283 1517.94 74.5324C1530.24 87.1279 1536.22 105.85 1536.22 130.32V152.76H1445.93C1446.69 159.742 1449.69 164.888 1454.85 168.431C1460.62 172.396 1469.35 174.52 1481.3 174.52C1487.29 174.52 1495.1 173.7 1504.75 172.031C1513.11 170.545 1522.03 168.686 1531.52 166.453L1533.98 165.875ZM1505.1 174C1495.39 175.68 1487.46 176.52 1481.3 176.52C1457.99 176.52 1445.53 168.6 1443.92 152.76C1443.86 152.107 1443.81 151.44 1443.78 150.76H1534.22V130.32C1534.22 81.9733 1510.6 57.8 1463.38 57.8C1448.63 57.8 1435.84 60.1333 1425.02 64.8C1414.38 69.28 1406.16 75.5333 1400.38 83.56C1394.59 91.4 1390.3 99.8933 1387.5 109.04C1384.88 118.187 1383.58 128.08 1383.58 138.72C1383.58 192.48 1411.02 219.36 1465.9 219.36C1485.31 219.36 1507.34 216.093 1531.98 209.56V168.4C1531.31 168.557 1530.64 168.713 1529.98 168.867C1521.2 170.901 1512.91 172.612 1505.1 174ZM1473.88 102.48L1473.86 102.458C1471.1 99.0455 1467.4 97.32 1462.54 97.32C1457.12 97.32 1452.95 99.2303 1449.82 103.013C1447.13 106.452 1445.59 110.658 1445.28 115.72H1478.41C1478.12 109.937 1476.55 105.596 1473.9 102.502L1473.88 102.48ZM1480.41 115.72C1480.44 116.372 1480.46 117.039 1480.46 117.72H1443.22C1443.22 117.042 1443.24 116.375 1443.28 115.72C1443.6 110.248 1445.26 105.594 1448.26 101.76C1451.8 97.4666 1456.56 95.32 1462.54 95.32C1467.95 95.32 1472.24 97.28 1475.42 101.2C1478.45 104.743 1480.12 109.583 1480.41 115.72ZM1552.38 0.359985H1613.78V218H1552.38V0.359985ZM1634.93 59.16H1696.33V162.52C1696.33 166.67 1697.22 169.41 1698.65 171.094C1700.04 172.716 1702.2 173.68 1705.53 173.68C1711.83 173.68 1719.17 170.942 1727.61 165.118V59.16H1789.01V218H1736.52L1732.45 204.42C1716.32 215.655 1700.05 221.36 1683.69 221.36C1668.04 221.36 1655.8 217.252 1647.28 208.734L1647.27 208.726L1647.26 208.717C1638.94 200.194 1634.93 187.853 1634.93 172.04V59.16ZM1733.81 202L1738.01 216H1787.01V61.16H1729.61V166.16C1720.65 172.507 1712.62 175.68 1705.53 175.68C1698.06 175.68 1694.33 171.293 1694.33 162.52V61.16H1636.93V172.04C1636.93 187.533 1640.85 199.293 1648.69 207.32C1656.72 215.347 1668.38 219.36 1683.69 219.36C1699.93 219.36 1716.17 213.573 1732.41 202H1733.81ZM293.559 61.16V216H350.959V61.16H293.559ZM292.719 4.59997V46.04H351.519V4.59997H292.719ZM1140.94 2.35999V216H1198.34V2.35999H1140.94ZM1554.38 2.35999V216H1611.78V2.35999H1554.38Z" fill="white"/>
</svg>
