<svg width="258" height="40" viewBox="0 0 258 40" fill="none" xmlns="http://www.w3.org/2000/svg">
<path d="M80.4459 11.0831V22.1307L68.0027 6.40771L67.5488 5.83435L67.552 5.83035L65.6018 3.37399L65.1855 2.85183L62.938 0.0117188H71.681L72.3696 0.881887L80.4459 11.0831Z" fill="url(#paint0_linear)"/>
<path d="M65.6016 3.37402L67.5518 5.83038L67.5486 5.83438L65.6016 3.37402Z" fill="#006633"/>
<path d="M71.6715 0L71.6811 0.0117357H62.938L62.9287 0H71.6715Z" fill="#006633"/>
<path d="M97.1366 32.1737L88.8726 32.2527V32.1855H88.8944L88.8726 32.1577V21.7312L90.6569 23.986L90.9761 24.3932L97.1366 32.1737Z" fill="url(#paint1_linear)"/>
<path d="M88.8728 32.083V32.1579L88.8384 32.1145L88.8728 32.083Z" fill="#006633"/>
<path d="M88.8947 32.3556H88.7632L88.8384 32.2844L88.8728 32.2527V32.3279L88.8947 32.3556Z" fill="#006633"/>
<path d="M88.8944 32.1854H88.8726V32.1577L88.8944 32.1854Z" fill="#006633"/>
<path d="M80.4428 32.1855V39.9976H57.1093L48.8172 29.5196L44.1248 23.5943L44.0653 23.5151L30.5363 6.41971L25.4619 0.0117188H34.2049L34.9031 0.893887L48.4386 17.9935L48.5386 18.1199L53.1622 23.9623L53.1902 23.9977L53.5094 24.4052L59.6699 32.1855H80.4428Z" fill="url(#paint2_linear)"/>
<path d="M88.8728 32.083V32.1579L88.8384 32.1145L88.8728 32.083Z" fill="url(#paint3_linear)"/>
<path d="M57.1092 39.9988H0V32.1868L18.0869 9.33598V9.33225L25.4618 0.0129395L30.5361 6.42093L10.142 32.1868H37.3257L44.1247 23.5955L48.8171 29.5208L46.7072 32.1868H50.9268L57.1092 39.9988Z" fill="url(#paint4_linear)"/>
<path d="M62.9234 0L62.9336 0.0129092H62.9131L62.9234 0Z" fill="url(#paint5_linear)"/>
<path d="M67.5518 5.83038L67.5486 5.83438L65.6016 3.37402L67.5518 5.83038Z" fill="url(#paint6_linear)"/>
<path d="M98.9524 39.9976H80.4429V32.3557L80.4461 32.2488V0.00400101L88.8696 0L88.8728 21.5257V32.0829L88.8384 32.1143L88.8728 32.1578V32.2528L88.8384 32.2845L88.7632 32.3557H88.8947L88.8728 32.328V32.2528L97.1369 32.1738L98.9212 34.5312L98.9524 39.9976Z" fill="url(#paint7_linear)"/>
<path d="M88.8728 32.083V32.1579L88.8384 32.1145L88.8728 32.083Z" fill="url(#paint8_linear)"/>
<path d="M88.8944 32.1854H88.8726V32.1577L88.8944 32.1854Z" fill="#008D36"/>
<path d="M67.5489 5.83435L53.1622 23.9623L48.5386 18.1199L62.913 0.0117188H62.9317L65.1856 2.85183L65.6019 3.37399L67.5489 5.83435Z" fill="url(#paint9_linear)"/>
<path d="M103.548 20.4903V0.598145H116.313V2.75293H106.007V9.43918H115.014V11.5665H106.007V18.3353H116.285V20.4903L103.548 20.4903Z" fill="#149038"/>
<path d="M116.552 20.7571H103.282V0.331543H116.579V3.01967H106.274V9.17252H115.281V11.8333H106.274V18.0687H116.552L116.552 20.7571ZM103.815 20.2237H116.018V18.6021H105.741V11.3H114.747V9.70587H105.741V2.48631H116.046V0.864898H103.815V20.2237Z" fill="#149038"/>
<path d="M127.364 5.46069V7.91961C126.587 8.03101 125.826 8.23505 125.098 8.52737C123.858 9.03462 122.649 9.61582 121.479 10.2679V20.4904H119.13V5.57112H121.396V8.25116L122.805 7.33928C124.536 6.19758 126.056 5.57138 127.364 5.46069Z" fill="#149038"/>
<path d="M121.745 20.757H118.864V5.30427H121.663V7.76088L122.66 7.11528C124.419 5.95508 125.995 5.30844 127.341 5.19489L127.631 5.17041V8.15074L127.402 8.18355C126.646 8.29227 125.906 8.49082 125.197 8.77498C124.015 9.25739 122.862 9.80933 121.745 10.4279V20.757ZM119.397 20.2236H121.212V10.1078L121.353 10.0326C122.534 9.37516 123.754 8.78903 125.005 8.27731C125.68 8.00752 126.381 7.8109 127.097 7.69083V5.75898C125.903 5.92852 124.51 6.53401 122.952 7.56191L121.129 8.74112V5.83763H119.397V20.2236Z" fill="#149038"/>
<path d="M129.242 0.266602H131.673V3.16749H129.242V0.266602ZM129.298 5.57108H131.646V20.4904H129.298V5.57108Z" fill="#149038"/>
<path d="M131.913 20.7571H129.031V5.30438H131.913V20.7571ZM129.564 20.2237H131.379V5.83773H129.564V20.2237ZM131.94 3.43425H128.976V0H131.94V3.43425ZM129.509 2.9009H131.407V0.533354H129.509V2.9009Z" fill="#149038"/>
<path d="M139.492 18.7773C141.813 18.7773 142.974 17.9208 142.974 16.2079C142.9 15.3978 142.637 14.8544 142.186 14.5779C141.734 14.3017 140.79 14.0623 139.354 13.8597C137.531 13.6204 136.283 13.1737 135.611 12.5197C134.938 11.8661 134.565 10.9036 134.492 9.63235C134.492 6.70378 136.472 5.2395 140.432 5.2395C141.82 5.24665 143.207 5.36679 144.576 5.59872V7.72609C143.29 7.48737 141.988 7.34886 140.68 7.31179C138.175 7.31179 136.923 8.0485 136.923 9.52192C136.917 9.79872 136.959 10.0745 137.047 10.3369C137.135 10.5733 137.294 10.7763 137.503 10.917C137.724 11.0738 137.904 11.1982 138.042 11.2901C138.288 11.4205 138.554 11.5093 138.829 11.5527C139.216 11.6355 139.469 11.6861 139.589 11.7046C139.709 11.7231 139.999 11.7599 140.459 11.8151C141.859 12.018 142.863 12.2758 143.471 12.5886C144.76 13.2335 145.405 14.4031 145.405 16.0975C145.405 17.6079 144.912 18.7728 143.927 19.5923C142.941 20.4122 141.509 20.822 139.63 20.8219C137.941 20.8071 136.253 20.7057 134.574 20.518V18.3353C136.201 18.6019 137.844 18.7497 139.492 18.7773Z" fill="#149038"/>
<path d="M139.63 21.0886C137.932 21.0735 136.235 20.9715 134.547 20.7832L134.308 20.7582V18.0255L134.614 18.0716C136.228 18.3357 137.858 18.4825 139.492 18.5107C141.656 18.5107 142.707 17.7575 142.707 16.208C142.643 15.5142 142.42 15.0342 142.047 14.8053C141.629 14.5498 140.71 14.3204 139.317 14.1238C137.42 13.8751 136.146 13.4128 135.425 12.711C134.706 12.0125 134.303 10.982 134.226 9.64783C134.225 6.54067 136.313 4.9729 140.432 4.9729C141.835 4.98064 143.235 5.10205 144.619 5.33594L144.843 5.3724V8.04099L144.532 7.98917C143.261 7.75357 141.973 7.61627 140.681 7.57848C137.19 7.57848 137.19 9.0413 137.19 9.52205C137.184 9.76797 137.221 10.013 137.298 10.2466C137.367 10.4317 137.492 10.5902 137.657 10.6994C137.876 10.8547 138.054 10.9777 138.19 11.0685C138.408 11.181 138.643 11.2566 138.885 11.2922C139.283 11.3773 139.519 11.4247 139.629 11.4409C139.748 11.4594 140.036 11.4958 140.491 11.5503C141.941 11.7607 142.954 12.0227 143.593 12.3518C144.971 13.0412 145.672 14.3019 145.672 16.0976C145.672 17.6838 145.142 18.9287 144.097 19.7974C143.067 20.6542 141.564 21.0886 139.63 21.0886ZM134.841 20.2774C136.659 20.4618 138.269 20.5553 139.63 20.5553C141.436 20.5553 142.825 20.1623 143.756 19.3875C144.686 18.6141 145.138 17.538 145.138 16.0976C145.138 14.4985 144.554 13.4287 143.352 12.8274C142.771 12.5284 141.786 12.2771 140.421 12.0789C139.962 12.0242 139.669 11.987 139.548 11.9682C139.428 11.9503 139.188 11.9024 138.774 11.8135C138.465 11.7652 138.167 11.6631 137.894 11.512C137.754 11.419 137.572 11.2932 137.349 11.1346C137.095 10.9624 136.902 10.715 136.796 10.4273C136.698 10.1358 136.651 9.8296 136.656 9.52206C136.656 7.8785 138.01 7.04514 140.681 7.04514C141.898 7.07672 143.111 7.19946 144.309 7.41234V5.82632C143.027 5.61989 141.73 5.51288 140.432 5.50625C136.614 5.50625 134.758 6.85605 134.758 9.63246C134.827 10.8138 135.177 11.726 135.797 12.3287C136.424 12.9388 137.632 13.3649 139.389 13.5954C140.878 13.8055 141.838 14.0524 142.325 14.3504C142.85 14.6722 143.158 15.2889 143.239 16.1838C143.24 17.5018 142.59 19.044 139.492 19.044C137.935 19.0197 136.38 18.8862 134.841 18.6445V20.2774Z" fill="#149038"/>
<path d="M151.041 2.28345V5.57123H155.82V7.61584H151.041V16.9816C151.03 17.2111 151.068 17.4401 151.151 17.6542C151.235 17.8683 151.361 18.0627 151.524 18.225C151.927 18.5666 152.448 18.7353 152.974 18.6947C153.754 18.6818 154.527 18.5514 155.268 18.3078V20.3801C154.149 20.6134 153.012 20.752 151.869 20.7944C150.746 20.7944 149.931 20.5273 149.424 19.9932C148.918 19.4592 148.664 18.6396 148.665 17.5343V7.61584H146.565V6.12389L147.062 5.57123H148.665V3.74773L150.074 2.28345L151.041 2.28345Z" fill="#149038"/>
<path d="M151.869 21.0611C150.675 21.0611 149.787 20.7634 149.231 20.1764C148.678 19.5944 148.398 18.7055 148.398 17.5344V7.88245H146.298V6.02143L146.943 5.30448H148.398V3.64009L149.96 2.01685H151.307V5.30448H156.087V7.88245H151.307V16.9815C151.297 17.1753 151.327 17.3691 151.397 17.5503C151.466 17.7315 151.573 17.8962 151.71 18.0336C152.064 18.3244 152.518 18.4658 152.974 18.4279C153.727 18.4146 154.473 18.2883 155.188 18.0532L155.534 17.9454V20.602L155.316 20.6423C154.181 20.8784 153.028 21.0185 151.869 21.0611ZM146.832 7.34908H148.931V17.5344C148.931 18.5641 149.162 19.3298 149.618 19.8095C150.069 20.2861 150.827 20.5277 151.869 20.5277C152.922 20.4902 153.969 20.3665 155.001 20.1577V18.6639C154.342 18.8526 153.66 18.9526 152.974 18.9613C152.378 19.0026 151.79 18.8067 151.338 18.4162C151.15 18.2291 151.003 18.005 150.905 17.7581C150.808 17.5111 150.763 17.2467 150.774 16.9815V7.34909H155.554V5.83783H150.774V2.5502H150.187L148.931 3.8552V5.83783H147.181L146.832 6.22612V7.34908Z" fill="#149038"/>
<path d="M169.745 17.7552V19.8549C167.931 20.4791 166.027 20.8057 164.109 20.8219C161.695 20.8219 159.886 20.1864 158.68 18.9156C157.473 17.6445 156.87 15.6737 156.87 13.0031C156.87 10.4799 157.459 8.55512 158.638 7.22877C159.817 5.90259 161.521 5.2395 163.75 5.2395C165.867 5.2395 167.451 5.83811 168.502 7.03533C169.551 8.23289 170.076 10.0656 170.076 12.5335V13.6662H159.301C159.32 17.0368 161.088 18.7221 164.606 18.7222C166.362 18.6974 168.1 18.3703 169.745 17.7552ZM159.274 11.8978H167.645C167.645 8.74838 166.31 7.17359 163.639 7.17342C163.072 7.13457 162.504 7.21809 161.972 7.41832C161.441 7.61854 160.959 7.93077 160.558 8.33382C159.665 9.18139 159.237 10.3694 159.274 11.8978Z" fill="#149038"/>
<path d="M164.109 21.0886C161.631 21.0886 159.739 20.4193 158.486 19.0992C157.237 17.7836 156.604 15.7324 156.604 13.0032C156.604 10.4242 157.221 8.422 158.439 7.05189C159.665 5.67241 161.452 4.9729 163.75 4.9729C165.938 4.9729 167.604 5.60756 168.702 6.85969C169.791 8.10193 170.343 10.0109 170.343 12.5336V13.9331H159.574C159.68 16.9754 161.328 18.4557 164.606 18.4557C166.331 18.4295 168.039 18.1077 169.655 17.5044L170.012 17.377V20.0472L169.829 20.1079C167.988 20.7399 166.056 21.0711 164.109 21.0886ZM163.75 5.50626C161.611 5.50626 159.958 6.14535 158.838 7.40607C157.709 8.67565 157.137 10.5588 157.137 13.0032C157.137 15.5913 157.721 17.5187 158.873 18.732C160.021 19.942 161.783 20.5553 164.109 20.5553C165.934 20.5394 167.746 20.2379 169.478 19.6618V18.1302C167.911 18.6777 166.266 18.9677 164.606 18.9891C160.928 18.9891 159.054 17.1989 159.035 13.668L159.033 13.3998H169.81V12.5336C169.81 10.144 169.302 8.35326 168.301 7.21129C167.309 6.07999 165.778 5.50626 163.75 5.50626ZM167.912 12.1646H159.014L159.007 11.9044C158.968 10.3049 159.429 9.03843 160.375 8.14048C160.802 7.71239 161.316 7.3808 161.882 7.16808C162.447 6.95537 163.052 6.86646 163.656 6.90737H163.657C166.475 6.90737 167.912 8.5866 167.912 11.8979V12.1646ZM159.539 11.6312H167.375C167.304 8.81186 166.08 7.4402 163.639 7.4402C163.106 7.40034 162.571 7.47696 162.071 7.66472C161.571 7.85248 161.117 8.14688 160.742 8.52748C159.96 9.26917 159.556 10.3124 159.539 11.6312Z" fill="#149038"/>
<path d="M175.242 20.2693V26.1541H172.894V5.57109H175.242V7.28416C177.158 5.92134 179.009 5.2398 180.796 5.23955C181.565 5.21183 182.329 5.37826 183.017 5.7235C183.705 6.06874 184.295 6.58167 184.733 7.21498C185.681 8.53219 186.155 10.3511 186.156 12.6716C186.156 18.0686 183.807 20.7669 179.11 20.7666C177.808 20.7289 176.512 20.5623 175.242 20.2693ZM183.724 12.8097C183.724 11.005 183.407 9.64196 182.771 8.72078C182.483 8.28064 182.086 7.92225 181.619 7.68023C181.152 7.43822 180.631 7.32078 180.105 7.33926C178.65 7.33926 177.029 7.95632 175.242 9.19043V18.2526C176.435 18.5591 177.658 18.735 178.889 18.7773C182.112 18.7773 183.724 16.7881 183.724 12.8097Z" fill="#149038"/>
<path d="M175.509 26.4209H172.627V5.30443H175.509V6.77741C177.317 5.57971 179.094 4.97291 180.796 4.97291C181.608 4.94587 182.413 5.12265 183.138 5.48711C183.864 5.85156 184.487 6.39206 184.949 7.05919C185.927 8.41706 186.423 10.3052 186.423 12.6717C186.423 18.2201 183.963 21.0334 179.111 21.0334C177.899 21.0018 176.693 20.8554 175.509 20.5962V26.4209ZM173.161 25.8875H174.976V19.9409L175.297 20.0084C176.549 20.297 177.826 20.4617 179.111 20.5001C183.672 20.5001 185.889 17.9393 185.889 12.6716C185.889 10.4195 185.427 8.63607 184.516 7.37091C184.105 6.77042 183.548 6.28429 182.897 5.95814C182.246 5.63198 181.523 5.47649 180.796 5.50626C179.075 5.50626 177.258 6.17764 175.397 7.50139L174.976 7.80113V5.83777H173.161V25.8875ZM178.889 19.044C177.638 19.0012 176.395 18.823 175.182 18.5125L174.976 18.4646V9.05067L175.091 8.97098C176.915 7.71129 178.602 7.07273 180.105 7.07273C180.674 7.05428 181.238 7.18221 181.743 7.44428C182.249 7.70634 182.678 8.09376 182.991 8.5694C183.654 9.53168 183.991 10.9583 183.991 12.8099C183.991 16.9466 182.275 19.044 178.889 19.044ZM175.509 18.0401C176.616 18.3151 177.749 18.4728 178.889 18.5107C181.964 18.5107 183.458 16.646 183.458 12.8099C183.458 11.0684 183.153 9.74366 182.552 8.87252C182.289 8.46725 181.925 8.13737 181.496 7.91531C181.067 7.69325 180.588 7.58668 180.105 7.60607C178.743 7.60607 177.198 8.1863 175.509 9.33114V18.0401Z" fill="#149038"/>
<path d="M193.201 11.7323H197.649V10.1297C197.649 8.21445 196.461 7.25671 194.085 7.25645C193.252 7.27397 192.421 7.34784 191.598 7.47757C190.771 7.58886 189.95 7.74565 189.139 7.94721V5.87492C189.765 5.72785 190.668 5.58053 191.847 5.43295C192.763 5.30832 193.686 5.2437 194.61 5.2395C196.341 5.2395 197.676 5.66773 198.616 6.52418C199.555 7.38071 200.025 8.62857 200.025 10.2678V20.4903H198.008L197.815 18.6115C195.899 19.9564 194.131 20.6287 192.51 20.6284C191.055 20.6284 189.918 20.2324 189.098 19.4404C188.278 18.6486 187.869 17.5896 187.869 16.2633C187.869 14.8266 188.343 13.7123 189.291 12.9201C190.24 12.1284 191.543 11.7325 193.201 11.7323ZM197.649 16.8987V13.5005H193.449C192.418 13.5005 191.63 13.7261 191.087 14.1774C190.813 14.4134 190.597 14.7094 190.456 15.0423C190.314 15.3753 190.252 15.7364 190.272 16.0975C190.254 16.4538 190.315 16.8097 190.451 17.1394C190.587 17.4691 190.795 17.7644 191.06 18.0037C191.663 18.4912 192.426 18.7374 193.201 18.6945C193.982 18.6729 194.751 18.4993 195.466 18.1834C196.254 17.8669 196.99 17.4339 197.649 16.8987H197.649Z" fill="#149038"/>
<path d="M192.51 20.8952C190.99 20.8952 189.779 20.4701 188.913 19.6321C188.043 18.7922 187.602 17.6588 187.602 16.2635C187.602 14.7506 188.113 13.5571 189.121 12.7157C190.114 11.8865 191.487 11.4659 193.201 11.4659H197.382V10.1299C197.382 8.3759 196.304 7.52326 194.085 7.52326C193.265 7.54102 192.447 7.61402 191.636 7.74176C190.82 7.85181 190.01 8.00621 189.21 8.20428L188.873 8.29725V5.66381L189.079 5.61537C189.709 5.46719 190.629 5.31692 191.814 5.16848C192.741 5.0427 193.675 4.97736 194.61 4.9729C196.402 4.9729 197.81 5.42865 198.796 6.32712C199.788 7.23237 200.292 8.5582 200.292 10.2679V20.7571H197.768L197.595 19.0844C195.782 20.2863 194.073 20.8952 192.51 20.8952ZM193.201 11.9992C191.615 11.9992 190.357 12.3781 189.462 13.1251C188.57 13.8707 188.135 14.8973 188.135 16.2635C188.135 17.5086 188.522 18.5128 189.283 19.2487C190.047 19.9873 191.133 20.3618 192.51 20.3618C194.067 20.3618 195.801 19.6995 197.662 18.3935L198.033 18.1323L198.249 20.2238H199.758V10.2679C199.758 8.71446 199.314 7.52118 198.436 6.72141C197.552 5.91513 196.264 5.50626 194.61 5.50626C193.697 5.51075 192.786 5.5746 191.882 5.69741C190.839 5.82815 190.008 5.9594 189.406 6.08857V7.60452C189.937 7.48004 190.658 7.34904 191.559 7.21388C192.395 7.08246 193.239 7.00764 194.085 6.98991C197.251 6.98991 197.916 8.69753 197.916 10.1299V11.9992L193.201 11.9992ZM193.201 18.9612C192.361 19.0037 191.536 18.7341 190.884 18.2044C190.591 17.9401 190.36 17.614 190.208 17.2496C190.056 16.8853 189.987 16.4918 190.006 16.0976C189.985 15.6972 190.056 15.2974 190.214 14.9289C190.372 14.5605 190.613 14.2332 190.917 13.9722C191.506 13.4824 192.359 13.2339 193.449 13.2339H197.916V17.0247L197.819 17.1049C197.138 17.6564 196.38 18.1031 195.567 18.4302C194.82 18.7588 194.017 18.9391 193.201 18.9612ZM193.449 13.7673C192.486 13.7673 191.749 13.9743 191.258 14.3827C191.014 14.5934 190.821 14.8579 190.697 15.1555C190.572 15.4531 190.518 15.7756 190.539 16.0976C190.52 16.4159 190.573 16.7344 190.693 17.0296C190.814 17.3248 190.999 17.5892 191.235 17.8034C191.791 18.246 192.491 18.4683 193.201 18.4279C193.947 18.4055 194.682 18.2388 195.365 17.937C196.089 17.645 196.768 17.2527 197.382 16.7716V13.7673H193.449Z" fill="#149038"/>
<path d="M203.644 0.598145H205.993V20.4903H203.644V0.598145Z" fill="#149038"/>
<path d="M206.259 20.7571H203.377V0.331543H206.259V20.7571ZM203.911 20.2237H205.726V0.864898H203.911V20.2237Z" fill="#149038"/>
<path d="M213.507 20.518L208.34 5.57104H210.855L214.971 17.921H215.109L219.198 5.57104H221.685L216.463 20.518H213.507Z" fill="#149038"/>
<path d="M216.653 20.7848H213.317L213.255 20.6053L207.966 5.30444H211.047L215.04 17.2831L219.006 5.30444H222.061L216.653 20.7848ZM213.697 20.2514H216.274L221.31 5.83781H219.391L215.302 18.1878H214.779L210.663 5.83781H208.715L213.697 20.2514Z" fill="#149038"/>
<path d="M235.527 17.7552V19.8549C233.713 20.4791 231.81 20.8057 229.891 20.8219C227.478 20.8219 225.668 20.1864 224.462 18.9156C223.255 17.6445 222.652 15.6737 222.652 13.0031C222.652 10.4799 223.242 8.55512 224.42 7.22877C225.599 5.90259 227.303 5.2395 229.532 5.2395C231.65 5.2395 233.234 5.83811 234.284 7.03533C235.334 8.23289 235.858 10.0656 235.859 12.5335V13.6662H225.084C225.102 17.0368 226.87 18.7221 230.388 18.7222C232.144 18.6974 233.882 18.3703 235.527 17.7552ZM225.056 11.8978H233.427C233.427 8.74838 232.092 7.17359 229.421 7.17342C228.854 7.13457 228.286 7.21809 227.755 7.41832C227.223 7.61854 226.741 7.93077 226.341 8.33382C225.447 9.18139 225.019 10.3694 225.056 11.8978H225.056Z" fill="#149038"/>
<path d="M229.891 21.0886C227.413 21.0886 225.521 20.4193 224.268 19.0992C223.019 17.7836 222.385 15.7324 222.385 13.0032C222.385 10.4242 223.003 8.422 224.221 7.05189C225.447 5.67241 227.233 4.9729 229.531 4.9729C231.72 4.9729 233.386 5.60756 234.484 6.85969C235.573 8.10193 236.125 10.0109 236.125 12.5336V13.9331H225.355C225.461 16.9754 227.11 18.4557 230.388 18.4557C232.113 18.4295 233.821 18.1077 235.437 17.5044L235.793 17.377V20.0472L235.611 20.1079C233.769 20.7399 231.838 21.0711 229.891 21.0886ZM229.531 5.50626C227.392 5.50626 225.74 6.14535 224.62 7.40607C223.491 8.67565 222.919 10.5588 222.919 13.0032C222.919 15.5913 223.503 17.5187 224.655 18.732C225.803 19.942 227.565 20.5553 229.891 20.5553C231.716 20.5394 233.528 20.2379 235.26 19.6618V18.1302C233.693 18.6777 232.048 18.9677 230.388 18.9891C226.71 18.9891 224.836 17.1989 224.817 13.668L224.815 13.3998H235.592V12.5336C235.592 10.144 235.084 8.35326 234.083 7.21129C233.091 6.07999 231.559 5.50626 229.531 5.50626ZM233.694 12.1646H224.796L224.789 11.9044C224.75 10.3049 225.21 9.03843 226.157 8.14048C226.584 7.71233 227.097 7.38071 227.663 7.16799C228.229 6.95527 228.834 6.86639 229.437 6.90737H229.439C232.257 6.90737 233.694 8.5866 233.694 11.8979V12.1646ZM225.321 11.6312H233.157C233.086 8.81186 231.861 7.4402 229.421 7.4402C228.888 7.40037 228.353 7.47699 227.853 7.66475C227.352 7.85251 226.899 8.1469 226.524 8.52748C225.742 9.26917 225.338 10.3124 225.321 11.6312Z" fill="#149038"/>
<path d="M238.786 0.598145H241.135V20.4903H238.786V0.598145Z" fill="#149038"/>
<path d="M241.402 20.7571H238.52V0.331543H241.402V20.7571ZM239.053 20.2237H240.868V0.864898H239.053V20.2237Z" fill="#149038"/>
<path d="M244.754 16.5948V5.57104H247.103V16.1528C247.103 16.9635 247.324 17.5897 247.766 18.0314C248.208 18.4734 248.852 18.6944 249.7 18.6945C251.099 18.6945 252.868 18.0682 255.004 16.8157V5.57104H257.353V20.4903H255.391L255.17 18.6945C252.72 20.1129 250.685 20.822 249.064 20.8219C247.664 20.8219 246.596 20.4627 245.859 19.7445C245.123 19.026 244.754 17.9761 244.754 16.5948Z" fill="#149038"/>
<path d="M249.064 21.0887C247.599 21.0887 246.458 20.7006 245.673 19.9355C244.887 19.1683 244.488 18.0445 244.488 16.595V5.30444H247.369V16.153C247.369 16.8966 247.561 17.4495 247.954 17.843C248.342 18.231 248.93 18.4279 249.7 18.4279C251.017 18.4279 252.711 17.8341 254.738 16.6624V5.30444H257.62V20.7571H255.155L254.954 19.1243C252.627 20.4282 250.647 21.0887 249.064 21.0887ZM245.021 5.8378V16.595C245.021 17.8953 245.366 18.8907 246.046 19.5537C246.727 20.2183 247.743 20.5553 249.064 20.5553C250.63 20.5553 252.64 19.8516 255.037 18.4638L255.386 18.2617L255.627 20.2238H257.086V5.8378H255.271V16.9687L255.139 17.0458C252.972 18.3169 251.142 18.9612 249.7 18.9612C248.783 18.9612 248.069 18.7117 247.577 18.2201C247.321 17.943 247.123 17.6172 246.996 17.262C246.869 16.9069 246.814 16.5297 246.836 16.153V5.8378H245.021Z" fill="#149038"/>
<path d="M152.599 31.0799L149.438 39.7391H148.06L144.942 31.0799H144.858V39.6974H143.661V29.6738H145.708L148.798 38.3609L151.861 29.6738H153.866V39.6974H152.682V31.0799H152.599Z" fill="#149038"/>
<path d="M149.532 39.8724H147.967L144.992 31.6117V39.8308H143.528V29.5405H145.802L148.798 37.9614L151.767 29.5405H153.999V39.8308H152.549V31.6052L149.532 39.8724ZM148.154 39.6058H149.345L152.506 30.9466H152.816V39.5641H153.732V29.8072H151.955L148.799 38.7604L145.614 29.8072H143.795V39.5641H144.725V30.9466H145.036L148.154 39.6058Z" fill="#149038"/>
<path d="M155.731 38.1521H156.79V39.6975H155.731V38.1521Z" fill="#149038"/>
<path d="M156.922 39.8306H155.598V38.0186H156.922V39.8306ZM155.864 39.5639H156.656V38.2852H155.864V39.5639Z" fill="#149038"/>
<path d="M158.654 39.6974V29.6738H159.893V38.6114H164.71V39.6974H158.654Z" fill="#149038"/>
<path d="M164.844 39.8308H158.521V29.5405H160.027V38.4781H164.844V39.8308ZM158.788 39.5641H164.577V38.7448H159.76V29.8072H158.788V39.5641Z" fill="#149038"/>
<path d="M165.56 29.5066H166.785V30.9684H165.56V29.5066ZM165.587 32.1796H166.771V39.6974H165.587V32.1796Z" fill="#149038"/>
<path d="M166.904 39.8307H165.454V32.0463H166.904V39.8307ZM165.721 39.5641H166.638V32.313H165.721V39.5641ZM166.918 31.1017H165.426V29.3733H166.918V31.1017ZM165.693 30.8351H166.651V29.64H165.693V30.8351Z" fill="#149038"/>
<path d="M174.942 34.1565V39.6973H173.759V34.3653C173.77 34.1932 173.746 34.0206 173.689 33.8579C173.631 33.6952 173.542 33.5458 173.425 33.4187C173.293 33.3005 173.139 33.2101 172.972 33.1527C172.804 33.0953 172.627 33.0721 172.45 33.0846C171.791 33.0846 170.9 33.4047 169.778 34.045V39.6973H168.594V32.1796H169.708V33.0984C170.97 32.3746 171.995 32.0127 172.785 32.0126C173.076 31.9754 173.371 32.0051 173.649 32.0995C173.927 32.1939 174.179 32.3504 174.387 32.5572C174.596 32.7639 174.754 33.0155 174.85 33.2926C174.946 33.5698 174.978 33.8652 174.942 34.1565V34.1565Z" fill="#149038"/>
<path d="M175.076 39.8306H173.626V34.3653C173.636 34.2107 173.615 34.0556 173.565 33.9092C173.514 33.7628 173.434 33.6281 173.331 33.5129C173.211 33.4078 173.071 33.3275 172.92 33.2768C172.769 33.2262 172.609 33.2061 172.45 33.2179C171.831 33.2179 170.977 33.5223 169.911 34.1226V39.8306H168.461V32.0462H169.841V32.8702C171.029 32.2124 172.018 31.8793 172.785 31.8793C173.093 31.8421 173.406 31.8753 173.7 31.9764C173.994 32.0774 174.261 32.2438 174.482 32.4629C174.702 32.682 174.87 32.9482 174.973 33.2415C175.076 33.5348 175.111 33.8476 175.076 34.1565V39.8306ZM173.892 39.564H174.809V34.1565C174.828 33.8851 174.793 33.6126 174.705 33.3551C174.617 33.0975 174.479 32.8601 174.298 32.6567C174.093 32.4752 173.853 32.3366 173.593 32.2489C173.333 32.1613 173.058 32.1263 172.785 32.146C172.023 32.146 171.01 32.5054 169.774 33.214L169.575 33.3286V32.3129H168.728V39.564H169.644V33.9676L169.712 33.9291C170.849 33.2801 171.771 32.9512 172.45 32.9512C172.645 32.9387 172.839 32.9653 173.023 33.0294C173.206 33.0935 173.375 33.1938 173.519 33.3244C173.648 33.4639 173.748 33.6279 173.812 33.8068C173.876 33.9857 173.903 34.1756 173.892 34.3653L173.892 39.564Z" fill="#149038"/>
<path d="M176.321 36.1054C176.321 33.3767 177.551 32.0124 180.01 32.0126C180.614 32.024 181.215 32.094 181.806 32.2214V29.075H182.989V39.6972H182.015L181.89 38.9732C181.084 39.5135 180.144 39.8174 179.175 39.8504C178.772 39.8714 178.37 39.795 178.003 39.6278C177.636 39.4606 177.314 39.2074 177.066 38.8896C176.569 38.2493 176.321 37.3212 176.321 36.1054ZM177.546 36.0497C177.546 37.8966 178.182 38.8201 179.453 38.8201C180.14 38.8201 180.924 38.5417 181.806 37.9849V33.2376C181.243 33.1173 180.669 33.052 180.094 33.0428C179.221 33.0428 178.578 33.2864 178.165 33.7736C177.752 34.2608 177.546 35.0195 177.546 36.0497V36.0497Z" fill="#149038"/>
<path d="M179.175 39.984C178.752 40.0046 178.33 39.9234 177.944 39.7472C177.559 39.5711 177.222 39.3052 176.96 38.9717C176.447 38.3105 176.188 37.3461 176.188 36.1057C176.188 33.3014 177.473 31.8795 180.01 31.8795C180.569 31.8889 181.125 31.9493 181.673 32.06V28.9419H183.123V39.8309H181.903L181.791 39.1881C181.005 39.6813 180.102 39.956 179.175 39.984ZM180.01 32.1462C177.617 32.1462 176.454 33.4413 176.454 36.1057C176.454 37.2857 176.695 38.1949 177.171 38.8082C177.406 39.1107 177.712 39.3515 178.061 39.5098C178.41 39.6682 178.792 39.7394 179.175 39.7173C180.119 39.6829 181.035 39.3861 181.819 38.86L181.987 38.7564L182.127 39.5642H182.856V29.2086H181.939V32.3845L181.78 32.3525C181.198 32.227 180.605 32.1579 180.01 32.1462ZM179.453 38.9538C178.099 38.9538 177.413 37.9769 177.413 36.05C177.413 34.9921 177.632 34.1973 178.064 33.6877C178.501 33.1715 179.184 32.9098 180.094 32.9098C180.678 32.9192 181.26 32.9853 181.832 33.1072L181.939 33.1285V38.0587L181.877 38.098C180.978 38.6657 180.162 38.9538 179.453 38.9538ZM180.094 33.1764C179.266 33.1764 178.651 33.4064 178.267 33.8601C177.877 34.3202 177.679 35.057 177.679 36.05C177.679 37.8245 178.259 38.6871 179.453 38.6871C180.095 38.6871 180.842 38.4261 181.673 37.9113V33.3478C181.153 33.2418 180.624 33.1845 180.094 33.1764Z" fill="#149038"/>
<path d="M191.161 34.1428V39.6975H189.978V34.3655C189.987 34.194 189.962 34.0223 189.904 33.8608C189.845 33.6993 189.754 33.5513 189.637 33.4259C189.507 33.3068 189.354 33.2152 189.188 33.1566C189.022 33.0979 188.845 33.0735 188.669 33.0847C188.337 33.0944 188.008 33.1554 187.695 33.2657C187.109 33.4753 186.541 33.7314 185.996 34.0314V39.6975H184.813V29.0752H185.996V33.0707C187.258 32.3654 188.261 32.0128 189.003 32.0128C189.294 31.9921 189.586 32.0295 189.862 32.1227C190.138 32.216 190.393 32.3632 190.611 32.5558C190.806 32.7694 190.955 33.0202 191.049 33.293C191.144 33.5657 191.182 33.8549 191.161 34.1428Z" fill="#149038"/>
<path d="M191.294 39.8306H189.844V34.3653C189.854 34.2113 189.833 34.0568 189.781 33.9115C189.729 33.7661 189.648 33.6329 189.543 33.5199C189.202 33.1801 188.605 33.1093 187.736 33.3923C187.183 33.59 186.646 33.8306 186.13 34.1119V39.8306H184.68V28.9417H186.13V32.8449C187.315 32.204 188.281 31.8793 189.003 31.8793C189.311 31.8588 189.62 31.8996 189.912 31.9994C190.205 32.0993 190.474 32.2561 190.705 32.4608C190.912 32.6868 191.071 32.9524 191.172 33.2414C191.273 33.5305 191.315 33.837 191.295 34.1426L191.294 39.8306ZM190.111 39.5639H191.028V34.1426C191.047 33.8724 191.012 33.601 190.925 33.3446C190.837 33.0882 190.699 32.8521 190.518 32.6504C190.311 32.4708 190.071 32.3337 189.811 32.2472C189.551 32.1606 189.276 32.1262 189.003 32.1459C188.287 32.1459 187.297 32.4962 186.062 33.1869L185.863 33.2978V29.2083H184.946V39.5639H185.863V33.9507L185.934 33.9132C186.486 33.6098 187.061 33.3509 187.653 33.1387C188.632 32.8207 189.316 32.9165 189.731 33.3314C189.861 33.4692 189.961 33.6319 190.027 33.8095C190.092 33.9872 190.121 34.1763 190.111 34.3653V39.5639Z" fill="#149038"/>
<path d="M192.511 35.9388C192.469 34.9146 192.8 33.91 193.444 33.1126C194.066 32.3795 194.989 32.0129 196.215 32.0128C197.193 31.9767 198.147 32.3238 198.874 32.9803C199.57 33.6254 199.918 34.6115 199.918 35.9388C199.961 36.9628 199.629 37.9674 198.985 38.7647C198.363 39.498 197.44 39.8646 196.215 39.8644C195.236 39.9008 194.282 39.5537 193.556 38.8969C192.859 38.2521 192.511 37.2661 192.511 35.9388ZM198.693 35.9388C198.753 35.1812 198.527 34.4285 198.059 33.8296C197.835 33.5606 197.548 33.3499 197.225 33.2154C196.901 33.0809 196.55 33.0265 196.201 33.0569C195.393 33.0569 194.781 33.3075 194.363 33.8087C193.945 34.3098 193.737 35.0198 193.737 35.9388C193.677 36.6983 193.903 37.4529 194.37 38.0547C194.593 38.3252 194.879 38.5365 195.203 38.6701C195.528 38.8036 195.88 38.8552 196.229 38.8204C197.036 38.8204 197.648 38.5698 198.066 38.0688C198.484 37.5675 198.693 36.8574 198.693 35.9388Z" fill="#149038"/>
<path d="M196.215 39.9976C195.203 40.0326 194.217 39.6729 193.465 38.9944C192.744 38.3267 192.378 37.2985 192.378 35.9385C192.337 34.883 192.68 33.8482 193.343 33.0262C193.988 32.2652 194.955 31.8793 196.215 31.8793C197.227 31.8444 198.213 32.204 198.965 32.8822C199.686 33.5504 200.051 34.5789 200.051 35.9385C200.093 36.994 199.75 38.0287 199.087 38.8506C198.441 39.6116 197.475 39.9976 196.215 39.9976ZM196.215 32.146C195.037 32.146 194.139 32.5001 193.546 33.1986C192.924 33.9729 192.604 34.9463 192.645 35.9386C192.645 37.2212 192.982 38.1834 193.646 38.7988C194.349 39.4309 195.27 39.7651 196.215 39.7309C197.393 39.7309 198.291 39.3767 198.884 38.6782C199.505 37.904 199.825 36.9307 199.785 35.9386C199.785 34.6562 199.448 33.6937 198.783 33.078C198.08 32.4461 197.16 32.1119 196.215 32.146ZM196.077 38.9572C195.732 38.9697 195.39 38.9024 195.076 38.7605C194.762 38.6186 194.485 38.4059 194.267 38.1392C193.78 37.5119 193.543 36.726 193.603 35.9341C193.603 34.9919 193.825 34.2466 194.261 33.7231C194.703 33.1923 195.356 32.9233 196.201 32.9233C196.57 32.8946 196.94 32.9541 197.281 33.0969C197.622 33.2396 197.924 33.4615 198.162 33.7442C198.65 34.368 198.886 35.1513 198.826 35.9406C198.826 36.8863 198.605 37.6308 198.169 38.154C197.727 38.6845 197.074 38.9535 196.229 38.9535C196.177 38.9559 196.127 38.9571 196.077 38.9572ZM196.318 33.1879C196.281 33.1879 196.244 33.1887 196.206 33.19C195.438 33.19 194.855 33.4267 194.466 33.8939C194.071 34.3679 193.87 35.056 193.87 35.9386C193.812 36.667 194.027 37.3909 194.473 37.9699C194.683 38.2243 194.953 38.4229 195.258 38.548C195.563 38.6731 195.894 38.7209 196.223 38.6871C196.991 38.6868 197.575 38.4501 197.964 37.9832C198.359 37.5089 198.56 36.8209 198.56 35.9385V35.9341C198.617 35.2093 198.402 34.4891 197.957 33.9145C197.759 33.6743 197.508 33.4836 197.223 33.3574C196.939 33.2313 196.629 33.1733 196.318 33.1879V33.1879Z" fill="#149038"/>
<path d="M201.379 29.075H202.563V39.6972H201.379V29.075Z" fill="#149038"/>
<path d="M202.696 39.8306H201.246V28.9417H202.696V39.8306ZM201.513 39.5639H202.429V29.2083H201.513V39.5639Z" fill="#149038"/>
<path d="M213.436 32.0128C213.723 31.9953 214.011 32.0355 214.282 32.1311C214.553 32.2268 214.803 32.3759 215.016 32.5696C215.392 32.9409 215.58 33.4885 215.58 34.2124V39.6975H214.396V34.3655C214.396 33.5209 213.955 33.0986 213.074 33.0985C212.424 33.0985 211.593 33.4187 210.582 34.0592L210.596 34.7134V39.6975H209.412V34.3655C209.412 33.5209 208.976 33.0986 208.104 33.0985C207.78 33.107 207.461 33.1681 207.157 33.2795C206.618 33.4732 206.104 33.7303 205.626 34.0452V39.6975H204.442V32.1797H205.556V33.0985C206.707 32.3748 207.677 32.0129 208.466 32.0128C209.477 32.0128 210.131 32.4026 210.429 33.1821C211.579 32.4024 212.582 32.0126 213.436 32.0128Z" fill="#149038"/>
<path d="M215.713 39.8308H214.263V34.3655C214.263 33.592 213.885 33.2318 213.074 33.2318C212.466 33.2318 211.673 33.5347 210.717 34.1319L210.729 34.7105V39.8308H209.279V34.3655C209.279 33.592 208.906 33.2318 208.104 33.2318C207.795 33.2406 207.49 33.2994 207.2 33.4058C206.694 33.5872 206.21 33.8267 205.759 34.1196V39.8308H204.309V32.0464H205.689V32.8597C206.77 32.2091 207.703 31.8794 208.466 31.8794C209.466 31.8794 210.146 32.25 210.489 32.9818C211.601 32.2503 212.592 31.8794 213.436 31.8794C213.74 31.8621 214.045 31.9058 214.333 32.0081C214.62 32.1103 214.884 32.269 215.11 32.4748C215.51 32.8701 215.713 33.4548 215.713 34.2123L215.713 39.8308ZM214.53 39.5641H215.446V34.2123C215.446 33.5287 215.27 33.0079 214.922 32.6644C214.721 32.4836 214.486 32.3446 214.231 32.2557C213.976 32.1667 213.705 32.1294 213.436 32.1461C212.613 32.1461 211.626 32.5318 210.503 33.2925L210.364 33.387L210.304 33.2295C210.026 32.5006 209.425 32.1461 208.466 32.1461C207.706 32.1461 206.751 32.5045 205.627 33.2113L205.423 33.3399V32.313H204.576V39.5641H205.492V33.9707L205.556 33.9316C206.044 33.6111 206.568 33.3495 207.118 33.1521C207.434 33.0368 207.767 32.9737 208.104 32.9652C209.047 32.9652 209.546 33.4493 209.546 34.3655V39.5641H210.462V34.7134L210.447 33.9868L210.51 33.9464C211.539 33.2954 212.401 32.9652 213.074 32.9652C214.026 32.9652 214.53 33.4493 214.53 34.3655V39.5641Z" fill="#149038"/>
<path d="M220.737 29.1514V34.1435H220.141V29.8238L219.205 30.2538V29.6852L220.294 29.1514H220.737Z" fill="#149038"/>
<path d="M221.819 34.1506V33.6167C222.066 33.6632 222.316 33.6886 222.568 33.6928C222.814 33.7047 223.059 33.6611 223.286 33.5651C223.513 33.4691 223.715 33.3233 223.878 33.1383C224.207 32.7397 224.378 32.2335 224.356 31.7169C223.901 31.9368 223.406 32.0595 222.9 32.0774C222.712 32.089 222.523 32.0617 222.345 31.9973C222.167 31.9329 222.005 31.8327 221.867 31.7029C221.739 31.5605 221.64 31.394 221.577 31.2131C221.514 31.0321 221.488 30.8404 221.5 30.6492C221.491 30.4363 221.527 30.224 221.608 30.0265C221.688 29.8291 221.809 29.6513 221.964 29.5051C222.298 29.2097 222.733 29.0555 223.178 29.0752C223.427 29.0663 223.675 29.1144 223.903 29.216C224.13 29.3175 224.332 29.4698 224.492 29.6611C224.822 30.0518 224.987 30.6422 224.987 31.4326C225.025 32.1589 224.815 32.8765 224.391 33.4675C224.18 33.7241 223.911 33.9267 223.606 34.0587C223.301 34.1907 222.969 34.2483 222.637 34.2267C222.363 34.2224 222.089 34.197 221.819 34.1506ZM222.117 30.6351C222.108 30.7596 222.125 30.8845 222.167 31.0021C222.208 31.1197 222.274 31.2273 222.36 31.3182C222.551 31.4838 222.8 31.5672 223.053 31.5505C223.5 31.5396 223.938 31.4281 224.336 31.2245C224.353 30.8047 224.245 30.3892 224.024 30.032C223.927 29.8959 223.797 29.7865 223.647 29.7138C223.497 29.6411 223.331 29.6075 223.164 29.6161C223.049 29.6159 222.935 29.631 222.824 29.6611C222.705 29.6947 222.592 29.7461 222.488 29.8135C222.369 29.8918 222.275 30.0025 222.217 30.1325C222.147 30.2905 222.113 30.4622 222.117 30.6351Z" fill="#149038"/>
<path d="M225.84 34.1506V33.6167C226.087 33.6632 226.338 33.6886 226.589 33.6928C226.835 33.7047 227.081 33.6611 227.308 33.5651C227.534 33.4691 227.737 33.3233 227.9 33.1383C228.229 32.7397 228.399 32.2335 228.378 31.7169C227.923 31.9368 227.427 32.0595 226.922 32.0774C226.733 32.089 226.544 32.0617 226.367 31.9973C226.189 31.9329 226.026 31.8327 225.889 31.7029C225.761 31.5605 225.662 31.394 225.599 31.2131C225.536 31.0321 225.509 30.8404 225.521 30.6492C225.512 30.4363 225.549 30.224 225.629 30.0265C225.709 29.8291 225.831 29.6513 225.986 29.5051C226.319 29.2097 226.754 29.0555 227.199 29.0752C227.448 29.0663 227.696 29.1144 227.924 29.216C228.152 29.3175 228.353 29.4698 228.513 29.6611C228.844 30.0518 229.009 30.6422 229.009 31.4326C229.047 32.1589 228.837 32.8765 228.413 33.4675C228.202 33.7241 227.932 33.9267 227.627 34.0587C227.322 34.1907 226.99 34.2483 226.659 34.2267C226.384 34.2224 226.111 34.197 225.84 34.1506ZM226.138 30.6351C226.129 30.7596 226.146 30.8845 226.188 31.0021C226.23 31.1197 226.296 31.2273 226.381 31.3182C226.573 31.4838 226.822 31.5672 227.075 31.5505C227.521 31.5396 227.96 31.4281 228.357 31.2245C228.375 30.8047 228.266 30.3892 228.045 30.032C227.948 29.8959 227.819 29.7865 227.669 29.7138C227.518 29.6411 227.352 29.6075 227.185 29.6161C227.071 29.6159 226.956 29.631 226.846 29.6611C226.727 29.6947 226.613 29.7461 226.509 29.8135C226.391 29.8918 226.297 30.0025 226.239 30.1325C226.168 30.2905 226.134 30.4622 226.138 30.6351H226.138Z" fill="#149038"/>
<path d="M230.881 34.1435H230.278C230.288 33.3828 230.412 32.6279 230.645 31.9038C230.906 31.0936 231.323 30.3422 231.872 29.692H229.411V29.1514H232.531V29.7061C232.012 30.3113 231.599 31.0006 231.311 31.7444C231.04 32.516 230.895 33.326 230.881 34.1435Z" fill="#149038"/>
<path d="M128.37 34.0671V29.075H131.573V29.6156H128.987V31.2935H131.247V31.8274H128.987V33.5262H131.566V34.0671L128.37 34.0671Z" fill="#149038"/>
<path d="M133.341 33.6373C133.924 33.6373 134.215 33.4223 134.215 32.9924C134.216 32.9135 134.2 32.8352 134.165 32.7641C134.131 32.6929 134.08 32.631 134.017 32.5833C133.792 32.4834 133.552 32.4224 133.306 32.4031C132.966 32.3885 132.639 32.2713 132.367 32.0669C132.184 31.8698 132.084 31.6108 132.086 31.3424C132.086 30.6075 132.583 30.24 133.577 30.24C133.925 30.2417 134.273 30.2718 134.617 30.3301V30.864C134.294 30.8039 133.967 30.7691 133.639 30.7598C133.01 30.7598 132.696 30.9447 132.696 31.3145C132.695 31.384 132.705 31.4533 132.727 31.5192C132.749 31.5785 132.789 31.6294 132.842 31.6648C132.897 31.7041 132.942 31.7353 132.977 31.7583C133.039 31.791 133.105 31.8132 133.175 31.8242C133.272 31.845 133.335 31.8578 133.365 31.8625C133.395 31.8669 133.468 31.8763 133.584 31.8901C133.844 31.9163 134.099 31.9818 134.339 32.0843C134.499 32.1657 134.631 32.2931 134.717 32.4501C134.804 32.607 134.841 32.7863 134.825 32.9648C134.834 33.1297 134.806 33.2946 134.742 33.4466C134.677 33.5987 134.579 33.734 134.454 33.842C134.142 34.0677 133.76 34.1768 133.376 34.1503C132.952 34.1467 132.528 34.1213 132.107 34.0743V33.5263C132.515 33.5932 132.927 33.6303 133.341 33.6373Z" fill="#149038"/>
<path d="M136.239 29.498V30.3231H137.439V30.8361H136.239V33.1867C136.237 33.2443 136.246 33.3018 136.267 33.3555C136.288 33.4092 136.32 33.458 136.361 33.4987C136.462 33.5844 136.593 33.6267 136.725 33.6164C136.92 33.6132 137.115 33.5805 137.3 33.5196V34.0396C137.02 34.0982 136.734 34.1329 136.448 34.1436C136.337 34.1537 136.225 34.141 136.12 34.1065C136.014 34.0719 135.917 34.0161 135.834 33.9425C135.693 33.7689 135.625 33.5479 135.643 33.3253V30.8361H135.116V30.4619L135.241 30.3231H135.643V29.8655L135.997 29.4981L136.239 29.498Z" fill="#149038"/>
<path d="M137.848 33.2976H138.374V34.0672H137.848V33.2976Z" fill="#149038"/>
<defs>
<linearGradient id="paint0_linear" x1="82.3499" y1="16.6014" x2="67.5829" y2="3.61122" gradientUnits="userSpaceOnUse">
<stop stop-color="#2C472D"/>
<stop offset="0.12369" stop-color="#214F2E"/>
<stop offset="0.39822" stop-color="#0F5C31"/>
<stop offset="0.68476" stop-color="#046333"/>
<stop offset="1" stop-color="#006633"/>
</linearGradient>
<linearGradient id="paint1_linear" x1="3014.04" y1="1708.63" x2="2644.24" y2="1482.87" gradientUnits="userSpaceOnUse">
<stop stop-color="#2C472D"/>
<stop offset="0.12369" stop-color="#214F2E"/>
<stop offset="0.39822" stop-color="#0F5C31"/>
<stop offset="0.68476" stop-color="#046333"/>
<stop offset="1" stop-color="#006633"/>
</linearGradient>
<linearGradient id="paint2_linear" x1="16224.1" y1="8276.17" x2="9000.15" y2="515.552" gradientUnits="userSpaceOnUse">
<stop stop-color="#2C472D"/>
<stop offset="0.12369" stop-color="#214F2E"/>
<stop offset="0.39822" stop-color="#0F5C31"/>
<stop offset="0.68476" stop-color="#046333"/>
<stop offset="1" stop-color="#006633"/>
</linearGradient>
<linearGradient id="paint3_linear" x1="88.8367" y1="32.1028" x2="88.8837" y2="32.1258" gradientUnits="userSpaceOnUse">
<stop stop-color="#006633"/>
<stop offset="0.56631" stop-color="#0E542C"/>
<stop offset="1" stop-color="#1C4426"/>
</linearGradient>
<linearGradient id="paint4_linear" x1="41.5341" y1="19.8273" x2="3.03979" y2="47.4872" gradientUnits="userSpaceOnUse">
<stop stop-color="#2FAC66"/>
<stop offset="0.15818" stop-color="#20A257"/>
<stop offset="0.42188" stop-color="#0E9645"/>
<stop offset="0.69715" stop-color="#048F3A"/>
<stop offset="1" stop-color="#008D36"/>
</linearGradient>
<linearGradient id="paint5_linear" x1="62.929" y1="0.00614655" x2="62.9177" y2="0.0160615" gradientUnits="userSpaceOnUse">
<stop stop-color="#2FAC66"/>
<stop offset="0.04987" stop-color="#24A55B"/>
<stop offset="0.15734" stop-color="#149A4A"/>
<stop offset="0.2911" stop-color="#08933F"/>
<stop offset="0.47883" stop-color="#028E38"/>
<stop offset="1" stop-color="#008D36"/>
</linearGradient>
<linearGradient id="paint6_linear" x1="589.312" y1="186.909" x2="588.356" y2="187.574" gradientUnits="userSpaceOnUse">
<stop stop-color="#2FAC66"/>
<stop offset="0.04987" stop-color="#24A55B"/>
<stop offset="0.15734" stop-color="#149A4A"/>
<stop offset="0.2911" stop-color="#08933F"/>
<stop offset="0.47883" stop-color="#028E38"/>
<stop offset="1" stop-color="#008D36"/>
</linearGradient>
<linearGradient id="paint7_linear" x1="97.0189" y1="35.1255" x2="66.7719" y2="-1.884" gradientUnits="userSpaceOnUse">
<stop stop-color="#008D36"/>
<stop offset="1" stop-color="#2FAC66"/>
</linearGradient>
<linearGradient id="paint8_linear" x1="88.8833" y1="32.1295" x2="88.8615" y2="32.1109" gradientUnits="userSpaceOnUse">
<stop stop-color="#2FAC66"/>
<stop offset="0.10938" stop-color="#26A65D"/>
<stop offset="0.41875" stop-color="#119847"/>
<stop offset="0.71958" stop-color="#04903A"/>
<stop offset="1" stop-color="#008D36"/>
</linearGradient>
<linearGradient id="paint9_linear" x1="5115.09" y1="1777.39" x2="3745.69" y2="2794.32" gradientUnits="userSpaceOnUse">
<stop stop-color="#2FAC66"/>
<stop offset="0.10938" stop-color="#26A65D"/>
<stop offset="0.41875" stop-color="#119847"/>
<stop offset="0.71958" stop-color="#04903A"/>
<stop offset="1" stop-color="#008D36"/>
</linearGradient>
</defs>
</svg>
